<svg width="247" height="204" viewBox="0 0 247 204" fill="none" xmlns="http://www.w3.org/2000/svg">
<path d="M219.058 8.05525C186.365 33.1559 158.705 57.0499 133.382 88.2246C122.214 101.975 109.795 118.158 101.677 133.438C97.0422 141.54 88.6877 154.201 85.8395 166.373C70.262 153.516 53.5298 138.924 36.41 127.495C24.2077 119.351 -10.9386 135.954 3.36791 145.504C29.0088 162.612 50.3329 183.921 75.2724 201.793C85.7039 209.259 108.822 193.044 114.255 186.241C132.088 163.829 134.525 136.432 147.522 111.985C167.366 74.5949 202.558 43.8809 237.306 17.2093C260.327 -1.83787 236.55 -5.351 219.093 8.05525" fill="#37B34A"/>
</svg>
